<svg width="22" height="23" viewBox="0 0 22 23" fill="none" xmlns="http://www.w3.org/2000/svg">
<path d="M16.5 7V4" stroke="black" stroke-linecap="round" stroke-linejoin="round"/>
<path d="M18 5.5H15" stroke="black" stroke-linecap="round" stroke-linejoin="round"/>
<path d="M13.5 1.5V3.5" stroke="black" stroke-linecap="round" stroke-linejoin="round"/>
<path d="M14.5 2.5H12.5" stroke="black" stroke-linecap="round" stroke-linejoin="round"/>
<g filter="url(#filter0_d_223_245)">
<path d="M16.5436 9.53755C15.5619 9.81283 14.5247 9.82185 13.5384 9.56369C12.5521 9.30553 11.6522 8.78949 10.9313 8.06857C10.2104 7.34765 9.69436 6.44783 9.43619 5.46152C9.17803 4.47522 9.18706 3.43797 9.46233 2.4563C8.4945 2.72568 7.61413 3.24394 6.90892 3.95944C6.20371 4.67495 5.69827 5.56274 5.44295 6.53438C5.18763 7.50602 5.19133 8.52759 5.45369 9.49736C5.71605 10.4671 6.22791 11.3512 6.93829 12.0616C7.64866 12.772 8.53276 13.2838 9.50253 13.5462C10.4723 13.8086 11.4939 13.8123 12.4655 13.5569C13.4371 13.3016 14.3249 12.7962 15.0404 12.091C15.7559 11.3858 16.2742 10.5054 16.5436 9.53755Z" stroke="black" stroke-linecap="round" stroke-linejoin="round" shape-rendering="crispEdges"/>
</g>
<defs>
<filter id="filter0_d_223_245" x="0.75415" y="1.9563" width="20.2896" height="20.2894" filterUnits="userSpaceOnUse" color-interpolation-filters="sRGB">
<feFlood flood-opacity="0" result="BackgroundImageFix"/>
<feColorMatrix in="SourceAlpha" type="matrix" values="0 0 0 0 0 0 0 0 0 0 0 0 0 0 0 0 0 0 127 0" result="hardAlpha"/>
<feOffset dy="4"/>
<feGaussianBlur stdDeviation="2"/>
<feComposite in2="hardAlpha" operator="out"/>
<feColorMatrix type="matrix" values="0 0 0 0 0 0 0 0 0 0 0 0 0 0 0 0 0 0 0.25 0"/>
<feBlend mode="normal" in2="BackgroundImageFix" result="effect1_dropShadow_223_245"/>
<feBlend mode="normal" in="SourceGraphic" in2="effect1_dropShadow_223_245" result="shape"/>
</filter>
</defs>
</svg>
